<svg xmlns="http://www.w3.org/2000/svg" viewBox="0 0 700 160" width="100%" height="100%"><defs><linearGradient id="dayGold" x1="0%" y1="0%" x2="100%" y2="100%"><stop offset="0%" stop-color="#E5A93C"/><stop offset="50%" stop-color="#F7931A"/><stop offset="100%" stop-color="#C1872A"/></linearGradient></defs><rect width="700" height="160" fill="none"/><g transform="translate(15, 5)"><circle cx="75" cy="75" r="72" fill="none" stroke="url(#dayGold)" stroke-width="1.5" opacity="0.4"/><circle cx="75" cy="75" r="62" fill="none" stroke="#1A202C" stroke-width="1" opacity="0.15"/><path d="M75,13 L128,44 L128,106 L75,137 L22,106 L22,44 Z" fill="none" stroke="url(#dayGold)" stroke-width="2.5"/><path d="M75,23 L119,49 L119,101 L75,127 L31,101 L31,49 Z" fill="none" stroke="#1A202C" stroke-width="1.5" opacity="0.3"/><path d="M75,13 V137 M22,44 L128,106 M22,106 L128,44" stroke="url(#dayGold)" stroke-width="1" opacity="0.5"/><circle cx="75" cy="13" r="5" fill="#1A202C" stroke="url(#dayGold)" stroke-width="2"/><circle cx="128" cy="44" r="5" fill="#1A202C" stroke="url(#dayGold)" stroke-width="2"/><circle cx="128" cy="106" r="5" fill="#1A202C" stroke="url(#dayGold)" stroke-width="2"/><circle cx="75" cy="137" r="5" fill="#1A202C" stroke="url(#dayGold)" stroke-width="2"/><circle cx="22" cy="106" r="5" fill="#1A202C" stroke="url(#dayGold)" stroke-width="2"/><circle cx="22" cy="44" r="5" fill="#1A202C" stroke="url(#dayGold)" stroke-width="2"/><path d="M58,45 H84 C95,45 102,50 102,60 C102,67 96,72 88,73 C98,75 105,81 105,92 C105,103 95,108 82,108 H58 V45 Z" fill="none" stroke="#1A202C" stroke-width="6.5" stroke-linecap="round" stroke-linejoin="round"/><path d="M58,45 H84 C95,45 102,50 102,60 C102,67 96,72 88,73 C98,75 105,81 105,92 C105,103 95,108 82,108 H58 V45 Z" fill="none" stroke="url(#dayGold)" stroke-width="5" stroke-linecap="round" stroke-linejoin="round"/><path d="M69,32 V45 M80,32 V45 M69,108 V121 M80,108 V121" stroke="url(#dayGold)" stroke-width="5" stroke-linecap="round"/><path d="M69,32 V45 M80,32 V45 M69,108 V121 M80,108 V121" stroke="#1A202C" stroke-width="2" stroke-linecap="round"/></g><text x="185" y="98" font-family="system-ui, -apple-system, BlinkMacSystemFont, 'Segoe UI', Roboto, sans-serif" font-weight="900" font-size="52" fill="#1A202C" letter-spacing="2">BITCOIN<tspan fill="url(#dayGold)">URDU</tspan></text></svg>
